<svg width="21" height="21" viewBox="0 0 21 21" fill="none" xmlns="http://www.w3.org/2000/svg">
<path d="M1.05 20.1238H19.95C20.2285 20.1238 20.4956 20.0178 20.6925 19.8291C20.8894 19.6404 21 19.3845 21 19.1176V4.02476C21 3.7579 20.8894 3.50197 20.6925 3.31328C20.4956 3.12458 20.2285 3.01857 19.95 3.01857H15.75V1.00619C15.75 0.739332 15.6394 0.483403 15.4425 0.294706C15.2455 0.106009 14.9785 0 14.7 0C14.4215 0 14.1545 0.106009 13.9575 0.294706C13.7606 0.483403 13.65 0.739332 13.65 1.00619V3.01857H7.35V1.00619C7.35 0.739332 7.23937 0.483403 7.04246 0.294706C6.84555 0.106009 6.57848 0 6.3 0C6.02152 0 5.75445 0.106009 5.55754 0.294706C5.36062 0.483403 5.25 0.739332 5.25 1.00619V3.01857H1.05C0.771523 3.01857 0.504451 3.12458 0.307538 3.31328C0.110625 3.50197 0 3.7579 0 4.02476V19.1176C0 19.3845 0.110625 19.6404 0.307538 19.8291C0.504451 20.0178 0.771523 20.1238 1.05 20.1238ZM2.1 5.03095H18.9V8.04952H2.1V5.03095ZM2.1 10.0619H18.9V18.1114H2.1V10.0619Z" fill="#62A6FF"/>
</svg>
