<svg width="27" height="31" viewBox="0 0 27 31" fill="none" xmlns="http://www.w3.org/2000/svg">
<path d="M12.4554 2.65869L11.7287 3.44929C12.1395 3.82695 12.7712 3.82695 13.182 3.44929L12.4554 2.65869ZM10.4387 9.94638C9.45052 9.226 8.39645 8.34995 7.59997 7.42667C6.77769 6.47348 6.37032 5.63131 6.37032 4.96186H4.22266C4.22266 6.41873 5.05087 7.75967 5.97379 8.82952C6.92254 9.9293 8.12331 10.9162 9.17365 11.6819L10.4387 9.94638ZM6.37032 4.96186C6.37032 3.44613 7.11487 2.58161 8.01041 2.28023C8.94399 1.96604 10.3362 2.16931 11.7287 3.44929L13.182 1.86811C11.3532 0.187065 9.16591 -0.37465 7.32541 0.244737C5.44685 0.876922 4.22266 2.64449 4.22266 4.96186H6.37032ZM15.7371 11.6819C16.7875 10.9162 17.9882 9.92933 18.937 8.82954C19.8599 7.75969 20.6881 6.41873 20.6881 4.96184H18.5404C18.5404 5.63133 18.1331 6.47351 17.3108 7.4267C16.5143 8.34997 15.4602 9.22601 14.472 9.94639L15.7371 11.6819ZM20.6881 4.96184C20.6881 2.64448 19.4639 0.876922 17.5853 0.244737C15.7449 -0.37465 13.5575 0.187065 11.7287 1.86811L13.182 3.44929C14.5745 2.16931 15.9668 1.96604 16.9003 2.28022C17.7959 2.58159 18.5404 3.44613 18.5404 4.96184H20.6881ZM9.17365 11.6819C10.2547 12.47 11.1121 13.1391 12.4554 13.1391V10.9914C11.9328 10.9914 11.646 10.8264 10.4387 9.94638L9.17365 11.6819ZM14.472 9.94639C13.2647 10.8264 12.978 10.9914 12.4554 10.9914V13.1391C13.7986 13.1391 14.656 12.47 15.7371 11.6819L14.472 9.94639Z" fill="#2382FF"/>
<path d="M1 28.8352H4.23571C5.68303 28.8352 7.14593 28.986 8.55451 29.2762C11.0462 29.7895 13.6695 29.8517 16.1867 29.4443M14.8544 24.7243C15.0259 24.7044 15.1903 24.6817 15.3472 24.6566C16.6522 24.4484 17.7475 23.7512 18.7503 22.9936L21.3378 21.0391C22.25 20.35 23.6038 20.3498 24.5162 21.0387C25.3376 21.6589 25.5887 22.6801 25.0694 23.5123C24.4639 24.4831 23.6107 25.7249 22.7915 26.4836M14.8544 24.7243C14.8027 24.7304 14.7505 24.7361 14.6975 24.7415M14.8544 24.7243C15.0632 24.6797 15.2703 24.5508 15.4649 24.3811C16.3858 23.5773 16.444 22.2227 15.6449 21.3252C15.4596 21.117 15.2426 20.9433 15.0015 20.7994C10.9962 18.4105 4.76473 20.23 1 22.8998M14.8544 24.7243C14.8022 24.7355 14.7498 24.7415 14.6975 24.7415M14.6975 24.7415C13.9481 24.8184 13.0716 24.8383 12.0988 24.7464" stroke="#2382FF" stroke-width="2" stroke-linecap="round"/>
</svg>
