<svg width="592" height="419" viewBox="0 0 592 419" fill="none" xmlns="http://www.w3.org/2000/svg">
<path d="M32.949 124.42C23.9487 151.581 -2.30149 152.392 1.34515 220.497C4.99179 288.602 69.8327 309.682 83.2061 319.411C96.5795 329.141 145.21 343.735 185.736 389.949C226.261 436.163 306.502 422.785 316.633 368.058C326.764 313.331 266.381 359.95 282.186 374.95C297.991 389.949 289.076 328.33 263.139 344.14C237.203 359.95 266.381 413.056 306.096 413.461C345.811 413.867 369.316 385.895 445.504 389.949C521.692 394.003 590.949 276.5 590.949 232.5C590.949 188.5 592.449 145.5 517.449 130.5" stroke="#8EBEFC"/>
<path d="M167.824 55.2859C175.336 81.3241 143.408 117.014 126.505 131.605C141.906 125.619 168.95 154.799 132.515 164.9C103.367 172.981 65.7794 155.797 50.6292 146.195C42.1151 135.47 27.4908 108.036 37.1068 84.0925C49.1267 54.1636 81.8059 33.9616 97.9577 28.724C114.11 23.4865 158.433 22.7383 167.824 55.2859Z" stroke="black"/>
<path d="M415.203 29.0086C403.118 53.2649 428.085 94.1281 442.08 111.528C428.011 102.863 396.147 126.687 430.163 143.194C457.376 156.399 497.447 146.276 514.08 139.563C524.389 130.55 543.721 106.203 538.581 80.918C532.156 49.3121 503.656 23.5476 488.714 15.4829C473.772 7.41816 430.31 -1.31169 415.203 29.0086Z" stroke="black"/>
<path d="M39.0322 157.863C28.7863 149.113 16.1798 126.812 11.1573 116.754C10.4039 113.36 11.9106 110.72 12.2873 108.834C12.664 106.949 19.8211 100.915 22.0812 99.0288C24.3414 97.1431 33.0052 94.8802 36.3954 100.915C39.7856 106.949 63.1403 134.48 69.1674 141.646C75.1944 148.812 95.1589 159.371 95.9123 165.406C96.6657 171.44 85.7417 182 77.0778 182C68.414 182 51.8397 168.8 39.0322 157.863Z" fill="white" stroke="black"/>
<path d="M523.381 153.131C535.037 146.373 551.459 126.71 558.213 117.724C559.566 114.521 558.56 111.653 558.53 109.73C558.499 107.807 552.548 100.581 550.665 98.3189C548.782 96.0565 540.668 92.2682 536.246 97.5921C531.823 102.916 503.886 125.784 496.665 131.745C489.444 137.706 467.903 144.492 466.073 150.292C464.244 156.091 473.084 168.448 481.606 170.011C490.128 171.573 508.811 161.579 523.381 153.131Z" fill="white" stroke="black"/>
</svg>
