<svg width="26" height="25" viewBox="0 0 26 25" fill="none" xmlns="http://www.w3.org/2000/svg">
<path d="M12.9813 24.4136C7.0375 24.4136 1 23.145 1 20.7196C1 18.5555 5.65 17.66 7.6375 17.3802H7.7125C7.99375 17.3802 8.2375 17.5854 8.275 17.8652C8.29375 18.0145 8.25625 18.1637 8.1625 18.2757C8.06875 18.3876 7.9375 18.4809 7.7875 18.4995C3.64375 19.0965 2.10625 20.1786 2.10625 20.7383C2.10625 21.783 6.34375 23.3129 12.9625 23.3129C19.5813 23.3129 23.8188 21.783 23.8188 20.7383C23.8188 20.1786 22.2625 19.0965 18.0812 18.4995C17.9312 18.4809 17.8 18.4063 17.7062 18.2757C17.6125 18.1637 17.575 18.0145 17.5938 17.8652C17.6313 17.5854 17.875 17.3802 18.1562 17.3802H18.2313C20.2375 17.66 24.925 18.5555 24.925 20.7196C24.9438 23.1263 18.925 24.4136 12.9813 24.4136ZM12.5875 20.4585C12.3063 20.1973 5.81875 14.0967 5.81875 8.10803C5.81875 4.19022 9.025 1 12.9625 1C16.9 1 20.1063 4.19022 20.1063 8.10803C20.1063 13.9288 13.6188 20.1786 13.3375 20.4398L12.9625 20.8129L12.5875 20.4585ZM12.9813 2.11937C9.6625 2.11937 6.9625 4.80587 6.9625 8.10803C6.9625 12.7907 11.5563 17.8093 12.9813 19.2458C14.425 17.772 19.0187 12.6601 19.0187 8.10803C19 4.82453 16.3 2.11937 12.9813 2.11937ZM12.9813 11.2796C11.1063 11.2796 9.5875 9.76843 9.5875 7.90281C9.5875 6.03718 11.1063 4.52603 12.9813 4.52603C14.8563 4.52603 16.375 6.03718 16.375 7.90281C16.375 9.76843 14.8563 11.2796 12.9813 11.2796ZM12.9813 5.6454C11.725 5.6454 10.7125 6.65284 10.7125 7.90281C10.7125 9.15277 11.725 10.1602 12.9813 10.1602C14.2375 10.1602 15.25 9.15277 15.25 7.90281C15.25 6.65284 14.2188 5.6454 12.9813 5.6454Z" fill="#62A6FF" stroke="#62A6FF" stroke-width="1.088"/>
</svg>
