<svg width="77" height="84" viewBox="0 0 77 84" fill="none" xmlns="http://www.w3.org/2000/svg">
<path d="M75 27.8223V68.0952H23.8889L4.27788 48.419C3.55748 47.6987 2.98554 46.8432 2.5947 45.9011C2.20386 44.9591 2.00179 43.949 2.00001 42.9286C1.99643 40.8678 2.80893 38.89 4.25877 37.4303C5.70861 35.9705 7.67702 35.1484 9.73099 35.1448C11.785 35.1412 13.7562 35.9564 15.2111 37.4111L17.6577 39.9042C18.1941 40.3458 18.8402 40.6326 19.5267 40.7338C20.2132 40.8351 20.9142 40.747 21.5546 40.4789C22.1949 40.2109 22.7505 39.773 23.1618 39.2123C23.573 38.6516 23.8244 37.9892 23.8889 37.296V28.8962C23.8383 25.3886 24.4831 21.906 25.786 18.6507C27.0889 15.3954 29.0238 12.4324 31.4782 9.93416C33.9327 7.43588 36.8576 5.45211 40.0831 4.09819C43.3085 2.74428 46.77 2.04724 50.2664 2.04761C56.8926 2.27595 63.1724 5.07341 67.7851 9.85169C72.3979 14.63 74.9841 21.0167 75 27.6689V27.8223Z" fill="url(#paint0_linear_583_318)" stroke="#020202" stroke-width="3" stroke-miterlimit="10"/>
<path d="M75.0022 68.0952H22.8594V82H75.0022V68.0952Z" stroke="#020202" stroke-width="3" stroke-miterlimit="10"/>
<defs>
<linearGradient id="paint0_linear_583_318" x1="38.5" y1="2.04761" x2="38.5" y2="68.0952" gradientUnits="userSpaceOnUse">
<stop stop-color="#B40A0A"/>
<stop offset="0.18" stop-color="#FF6200"/>
<stop offset="0.34" stop-color="#FFEA00"/>
<stop offset="0.515" stop-color="#008F11"/>
<stop offset="0.68" stop-color="#0077E7"/>
<stop offset="0.85" stop-color="#001E7F"/>
<stop offset="1" stop-color="#9900FF"/>
</linearGradient>
</defs>
</svg>
