<svg width="77" height="83" viewBox="0 0 77 83" fill="none" xmlns="http://www.w3.org/2000/svg">
<path d="M68.8299 16.2478C67.7898 16.0776 66.7252 16.1353 65.7096 16.4169C64.694 16.6985 63.7516 17.1972 62.9476 17.8786C62.1436 18.56 61.4971 19.4079 61.0528 20.3636C60.6086 21.3193 60.3772 22.3601 60.3745 23.4141V16.5511C60.412 14.7824 59.8299 13.0561 58.7289 11.6713C57.628 10.2864 56.0774 9.33009 54.3458 8.9678C53.307 8.78458 52.2406 8.83172 51.222 9.10589C50.2034 9.38006 49.2574 9.87457 48.4509 10.5545C47.6444 11.2344 46.9971 12.0831 46.5546 13.0407C46.1122 13.9982 45.8854 15.0413 45.8903 16.0961V9.30905C45.9278 7.54028 45.3457 5.81406 44.2448 4.4292C43.1438 3.04434 41.5933 2.088 39.8616 1.72572C38.8228 1.5425 37.7564 1.58964 36.7378 1.8638C35.7192 2.13797 34.7733 2.63248 33.9668 3.31239C33.1603 3.9923 32.5129 4.84103 32.0705 5.7986C31.628 6.75616 31.4013 7.79922 31.4062 8.85405V16.172C31.4154 15.1017 31.1861 14.0429 30.7348 13.0724C30.2836 12.1019 29.6217 11.2441 28.7974 10.5614C27.9731 9.87876 27.0071 9.38833 25.9695 9.12578C24.9319 8.86323 23.8489 8.83517 22.7991 9.04364C21.0674 9.40592 19.5169 10.3623 18.4159 11.7471C17.315 13.132 16.7329 14.8582 16.7703 16.627V37.9741C16.7828 36.8985 16.5567 35.8336 16.1085 34.8559C15.6602 33.8782 15.0009 33.0119 14.1779 32.3194C13.3549 31.6269 12.3886 31.1254 11.3487 30.8509C10.3087 30.5765 9.22082 30.5358 8.16327 30.732C6.43159 31.0943 4.88107 32.0506 3.78011 33.4355C2.67914 34.8203 2.09703 36.5465 2.13452 38.3153V38.5428C2.14431 44.981 3.81823 51.3073 6.99383 56.9077C10.1694 62.5082 14.7389 67.1927 20.2587 70.5066V81.3128H63.8249V70.4686C67.2758 67.0261 70.0134 62.9364 71.8808 58.4339C73.7482 53.9314 74.7086 49.1047 74.707 44.2303V23.7932C74.7429 22.0519 74.1782 20.3513 73.108 18.9772C72.0377 17.6031 70.5271 16.6393 68.8299 16.2478Z" stroke="#020202" stroke-width="3" stroke-miterlimit="10"/>
<path d="M16.7734 48.7424V37.8982" stroke="#020202" stroke-width="3" stroke-miterlimit="10"/>
<path d="M31.2578 37.8981V16.1719" stroke="#020202" stroke-width="3" stroke-miterlimit="10"/>
<path d="M45.7422 36.8981V15.1719" stroke="#020202" stroke-width="3" stroke-miterlimit="10"/>
<path d="M60.2266 37.8982V23.4141" stroke="#020202" stroke-width="3" stroke-miterlimit="10"/>
<path d="M71.0706 81.313H13.1719" stroke="#020202" stroke-width="3" stroke-miterlimit="10"/>
</svg>
