<svg width="244" height="244" viewBox="0 0 244 244" fill="none" xmlns="http://www.w3.org/2000/svg">
<circle cx="122" cy="122" r="122" fill="#EBEBEB"/>
<path d="M103.649 101.667H107.865M103.649 114.167H107.865M124.73 114.167H128.946M124.73 126.667H128.946M103.649 126.667H107.865M124.73 101.667H128.946M107.865 160V147.5C107.865 142.897 111.64 139.167 116.297 139.167C120.955 139.167 124.73 142.897 124.73 147.5V160H107.865ZM107.865 160H91V91.6667C91 89.3331 91 88.1663 91.4595 87.275C91.8638 86.491 92.5088 85.8536 93.3021 85.4541C94.204 85 95.3847 85 97.7459 85H134.849C137.21 85 138.391 85 139.293 85.4541C140.086 85.8536 140.731 86.491 141.135 87.275C141.595 88.1663 141.595 89.3331 141.595 91.6667V110M161.411 128.75C161.411 132.202 158.579 135 155.086 135C151.594 135 148.762 132.202 148.762 128.75C148.762 125.298 151.594 122.5 155.086 122.5C158.579 122.5 161.411 125.298 161.411 128.75ZM169 160V157.917C169 152.164 164.281 147.5 158.459 147.5H152.135C146.314 147.5 141.595 152.164 141.595 157.917V160H169Z" stroke="black" stroke-opacity="0.3" stroke-width="3.5" stroke-linecap="round" stroke-linejoin="round"/>
</svg>
