<svg width="58" height="57" viewBox="0 0 58 57" fill="none" xmlns="http://www.w3.org/2000/svg">
<path d="M25.8211 20.6801C27.2344 18.1448 27.9411 16.8771 28.9977 16.8771C30.0544 16.8771 30.7611 18.1448 32.1744 20.6801L32.54 21.336C32.9413 22.0565 33.1421 22.4167 33.4553 22.6544C33.7685 22.8921 34.1583 22.9803 34.9382 23.1568L35.6482 23.3175C38.3927 23.9384 39.7651 24.2489 40.0917 25.2988C40.4182 26.3486 39.4824 27.4426 37.6116 29.6305L37.1274 30.1965C36.5959 30.8182 36.33 31.1291 36.2102 31.5137C36.0908 31.8982 36.131 32.3129 36.2113 33.1427L36.2846 33.8977C36.5673 36.817 36.709 38.2764 35.8543 38.9255C34.9992 39.5741 33.7146 38.9827 31.1449 37.7996L30.4802 37.4935C29.7498 37.1573 29.3849 36.9892 28.9977 36.9892C28.6106 36.9892 28.2457 37.1573 27.5152 37.4935L26.8506 37.7996C24.2809 38.9827 22.9963 39.5741 22.1412 38.9255C21.2867 38.2764 21.4281 36.817 21.7109 33.8977L21.7842 33.1427C21.8645 32.3129 21.9047 31.8982 21.7853 31.5137C21.6655 31.1291 21.3997 30.8182 20.868 30.1965L20.3839 29.6305C18.5129 27.4426 17.5774 26.3486 17.9039 25.2988C18.2304 24.2489 19.6026 23.9384 22.3473 23.3175L23.0573 23.1568C23.8372 22.9803 24.227 22.8921 24.5402 22.6544C24.8533 22.4167 25.0542 22.0565 25.4555 21.336L25.8211 20.6801Z" stroke="#62A6FF" stroke-width="4"/>
<path d="M4.82059 18.3534C3.62093 21.3463 2.96094 24.6136 2.96094 28.0351C2.96094 42.4139 14.6173 54.0702 28.996 54.0702C43.3749 54.0702 55.0311 42.4139 55.0311 28.0351C55.0311 13.6563 43.3749 2 28.996 2C25.5747 2 22.3072 2.65999 19.3144 3.85965" stroke="#62A6FF" stroke-width="4" stroke-linecap="round"/>
</svg>
