<svg width="46" height="74" viewBox="0 0 46 74" fill="none" xmlns="http://www.w3.org/2000/svg">
<path d="M18.7031 66.4688V67.7129H7.41016V66.4688H12.2773V63.7754H8.6543V57.8145H17.4043V63.7754H13.7812V66.4688H18.7031ZM10.1445 62.5859H15.9004V59.0312H10.1445V62.5859ZM26.6429 57.5957V58.8125H24.0452C24.0657 60.2617 25.1321 61.6562 27.0804 62.2031L26.3147 63.3926C24.886 62.9688 23.8538 62.0732 23.2933 60.9316C22.7327 62.1621 21.68 63.1328 20.2034 63.5977L19.4378 62.4082C21.4134 61.8271 22.4798 60.3506 22.514 58.8125H19.848V57.5957H26.6429ZM21.4749 69.0664V64.1035H22.9788V65.375H28.1331V64.1035H29.6507V69.0664H21.4749ZM22.9788 67.8359H28.1331V66.5508H22.9788V67.8359ZM28.1194 63.5566V56.8574H29.6507V63.5566H28.1194ZM42.567 62.5312V63.7617H37.6725V64.8008C39.8805 64.9443 41.193 65.71 41.1998 66.9883C41.193 68.4102 39.5797 69.2031 36.9205 69.2031C34.2203 69.2031 32.6139 68.4102 32.6139 66.9883C32.6139 65.71 33.9264 64.9375 36.1686 64.7939V63.7617H31.3014V62.5312H42.567ZM31.8482 60.7676C34.1178 60.5557 35.6012 59.6328 35.8541 58.6211H32.3268V57.4043H41.5553V58.6211H37.9938C38.2399 59.6396 39.7096 60.5557 42.0338 60.7676L41.5006 61.9707C39.2516 61.7383 37.5904 60.8428 36.9205 59.5918C36.2506 60.8428 34.61 61.7383 32.3678 61.9707L31.8482 60.7676ZM34.1588 66.9883C34.152 67.6719 35.1227 68.0479 36.9205 68.041C38.691 68.0479 39.6686 67.6719 39.6822 66.9883C39.6686 66.3047 38.691 65.9424 36.9205 65.9355C35.1227 65.9424 34.152 66.3047 34.1588 66.9883Z" fill="#2382FF"/>
<path fill-rule="evenodd" clip-rule="evenodd" d="M38.1042 1.6495C38.2479 1.5058 38.3738 1.38432 38.4989 1.30418C38.5808 1.25172 38.6213 1.2435 38.6328 1.24247C38.8006 1.28704 39.0066 1.48422 39.197 1.9767C39.3728 2.43136 39.4652 2.95558 39.5359 3.35642L39.536 3.35644L39.536 3.35646L39.536 3.35648L39.5402 3.38058C39.5679 3.5375 39.6523 3.67018 39.7685 3.76128C39.9502 3.99416 40.2781 4.07048 40.5482 3.92747C41.083 3.64437 41.5236 3.46034 41.9518 3.3966C42.3614 3.33563 42.7935 3.38012 43.3168 3.61935C43.756 3.82015 43.9288 4.16252 43.9373 4.61089C43.9464 5.09566 43.7504 5.66402 43.4531 6.10997C43.2629 6.39529 43.34 6.78078 43.6253 6.97099C43.9106 7.1612 44.2961 7.0841 44.4863 6.79878C44.8901 6.19314 45.1938 5.38033 45.1788 4.58748C45.1632 3.75823 44.788 2.92655 43.8331 2.48999C43.1026 2.15607 42.4284 2.0702 41.7689 2.16836C41.3752 2.22697 41.0003 2.34943 40.6376 2.50512C40.5709 2.19806 40.481 1.85414 40.3552 1.52891C40.1373 0.965276 39.728 0.236242 38.9294 0.0365897C38.4752 -0.0769498 38.0839 0.0953236 37.8291 0.258581C37.5783 0.419251 37.3655 0.632099 37.2337 0.763904L37.2262 0.771433C36.8134 1.18423 36.5702 1.69692 36.3911 2.12618C35.908 3.28372 35.5261 4.48801 35.1552 5.65762L35.1552 5.65784L35.104 5.81918C34.5882 5.57942 33.9299 5.34752 33.3113 5.28229C32.8651 5.23523 32.3302 5.26285 31.8917 5.55577C31.4091 5.87821 31.1913 6.4171 31.1994 7.06324C31.2142 8.23249 31.8568 9.05564 32.6445 9.59607C33.4163 10.1256 34.3662 10.4168 35.1565 10.5641C35.1939 11.7357 35.1488 12.8843 35.102 14.0776V14.0777C35.0885 14.4217 35.0749 14.7694 35.063 15.1225C34.9619 18.1345 34.9492 21.1452 34.9492 24.1484C34.9492 24.4913 35.2272 24.7692 35.5701 24.7692C35.913 24.7692 36.191 24.4913 36.191 24.1484C36.191 21.1468 36.2037 18.1538 36.3041 15.1642C36.3154 14.8272 36.3287 14.4902 36.342 14.1527L36.342 14.1525C36.3958 12.7859 36.4499 11.4121 36.3758 10.0048C36.3578 9.6624 36.0656 9.39941 35.7231 9.41744C35.6848 9.41945 35.6474 9.42491 35.6114 9.43348C35.545 9.39033 35.4693 9.35923 35.3866 9.34385C34.6854 9.21339 33.9218 8.96642 33.347 8.57209C32.7872 8.18805 32.4494 7.70056 32.4411 7.04752C32.4366 6.69429 32.5426 6.61433 32.5816 6.58828C32.6648 6.53271 32.8491 6.4822 33.1811 6.51721C33.8362 6.5863 34.6426 6.94233 35.0537 7.19529C35.1714 7.26773 35.3038 7.29617 35.4316 7.28521C35.7136 7.30985 35.9854 7.13799 36.076 6.85716C36.1674 6.57401 36.2568 6.29223 36.3457 6.01199L36.3458 6.01172L36.346 6.01114L36.3461 6.01088C36.7158 4.84538 37.0772 3.70634 37.537 2.60443C37.7049 2.20226 37.8725 1.88128 38.1042 1.6495ZM38.636 1.24248L38.6364 1.24243L38.6363 1.24239L38.6355 1.24234L38.6341 1.24238L38.636 1.24248Z" fill="#2382FF"/>
<path fill-rule="evenodd" clip-rule="evenodd" d="M6.36229 2.27385C6.19195 2.16302 6.04364 2.07024 5.90466 2.01774C5.81369 1.98337 5.77238 1.98371 5.7609 1.98509C5.60594 2.06343 5.44526 2.29899 5.36095 2.82022C5.28312 3.30145 5.3012 3.83348 5.31503 4.24027V4.24028L5.31586 4.26474C5.32126 4.424 5.26619 4.57128 5.1713 4.68449C5.04176 4.94992 4.73681 5.09245 4.44294 5.00847C3.86117 4.84223 3.39198 4.75342 2.95988 4.77971C2.54653 4.80487 2.13301 4.93786 1.67056 5.28027C1.28242 5.56766 1.18427 5.93838 1.26884 6.37879C1.36026 6.85494 1.66971 7.3704 2.0529 7.74514C2.29807 7.98489 2.30246 8.37799 2.06271 8.62315C1.82296 8.86832 1.42986 8.87271 1.18469 8.63296C0.664283 8.12404 0.198867 7.39171 0.0493376 6.61294C-0.107055 5.79843 0.0877536 4.90709 0.931638 4.28227C1.57713 3.80434 2.21899 3.58073 2.88444 3.54023C3.28174 3.51605 3.6739 3.55823 4.06102 3.63544C4.06265 3.32124 4.07944 2.96616 4.13511 2.62195C4.2316 2.02541 4.4811 1.22742 5.22107 0.86674C5.64188 0.661627 6.06041 0.749139 6.34353 0.856096C6.62215 0.961358 6.8744 1.12554 7.03061 1.2272L7.03953 1.23301C7.52886 1.55139 7.87291 2.00262 8.13704 2.38549C8.84932 3.41794 9.47227 4.51706 10.0773 5.58453L10.0776 5.58506L10.1608 5.73195C10.6158 5.39058 11.2118 5.02739 11.8035 4.83549C12.2303 4.69706 12.7594 4.61332 13.249 4.80911C13.7879 5.02465 14.1126 5.50675 14.2384 6.14058C14.466 7.28756 14.0079 8.22591 13.349 8.91774C12.7036 9.59555 11.8346 10.0772 11.0919 10.3849C11.2979 11.5389 11.5798 12.6532 11.8727 13.811L11.8727 13.8111C11.9572 14.1448 12.0425 14.4822 12.1272 14.8252C12.8498 17.7509 13.4856 20.6938 14.1074 23.6319C14.1784 23.9674 13.964 24.2969 13.6285 24.3679C13.293 24.4389 12.9635 24.2245 12.8925 23.889C12.271 20.9525 11.6389 18.027 10.9217 15.123C10.8408 14.7956 10.7581 14.4686 10.6752 14.1411L10.6752 14.141C10.3396 12.8151 10.0022 11.4823 9.7833 10.0902C9.73003 9.75147 9.96145 9.43368 10.3002 9.38041C10.3381 9.37445 10.3758 9.37205 10.4128 9.37297C10.4688 9.31701 10.5365 9.27089 10.6142 9.23873C11.2732 8.96591 11.9691 8.56619 12.4498 8.06139C12.9179 7.56977 13.1475 7.02289 13.0204 6.3823C12.9516 6.03579 12.8314 5.97951 12.7878 5.9621C12.6949 5.92495 12.5042 5.91369 12.1866 6.01669C11.56 6.21991 10.8448 6.7352 10.495 7.06779C10.395 7.16294 10.2715 7.21816 10.1442 7.23397C9.87334 7.31669 9.57166 7.20484 9.42479 6.94874C9.27678 6.69065 9.13099 6.43351 8.98599 6.17776L8.98585 6.17751L8.98563 6.17713L8.98539 6.1767C8.38233 5.11302 7.79295 4.07348 7.11491 3.09065C6.86745 2.73195 6.63704 2.45262 6.36229 2.27385ZM5.75743 1.98578C5.75746 1.98584 5.75822 1.98572 5.75963 1.98526C5.7581 1.9855 5.7574 1.98573 5.75743 1.98578Z" fill="#2382FF"/>
<path fill-rule="evenodd" clip-rule="evenodd" d="M27.1706 18.588C32.0882 18.4074 36.6992 19.7666 40.0199 23.6823C42.7315 26.8798 43.8023 31.3213 42.5937 35.4117C41.448 39.2893 38.2679 42.7646 34.8431 44.6711C30.0301 47.3502 24.8689 47.2806 19.8386 45.6902C15.1429 44.2055 10.2993 40.5578 9.59588 35.2299C9.18789 35.1963 8.88386 34.8387 8.91646 34.4304C9.6734 24.95 18.2415 18.9158 27.1706 18.588ZM10.564 33.2196C10.8182 33.3376 10.9945 33.5951 10.9945 33.8938C10.9945 38.9891 15.4655 42.7492 20.2865 44.2735C25.0442 45.7778 29.7595 45.8004 34.1204 43.3729C37.2719 41.6186 40.1532 38.4281 41.1688 34.9907C42.2269 31.4096 41.2944 27.4823 38.8867 24.6432C35.9422 21.1711 31.8304 19.9036 27.2251 20.0727C19.2751 20.3647 11.9006 25.4373 10.564 33.2196Z" fill="#2382FF"/>
<path fill-rule="evenodd" clip-rule="evenodd" d="M22.1296 22.2409C22.5243 22.1287 22.9352 22.3576 23.0475 22.7522C23.0634 22.8083 23.0795 22.8647 23.0957 22.9215C23.4158 24.045 23.772 25.2949 23.9093 26.5304C23.9546 26.9382 23.6608 27.3055 23.253 27.3508C22.8452 27.3961 22.4779 27.1023 22.4326 26.6945C22.3095 25.5861 21.9845 24.4448 21.6551 23.2879C21.6429 23.2449 21.6306 23.2018 21.6184 23.1587C21.5061 22.7641 21.735 22.3532 22.1296 22.2409Z" fill="#2382FF"/>
<path fill-rule="evenodd" clip-rule="evenodd" d="M28.9154 21.5438C29.3255 21.5558 29.6482 21.8981 29.6361 22.3082C29.6047 23.3766 29.6406 24.1424 29.8746 25.1954C29.9636 25.5959 29.7111 25.9927 29.3105 26.0817C28.91 26.1707 28.5132 25.9182 28.4242 25.5177C28.1557 24.3094 28.1172 23.4136 28.151 22.2645C28.163 21.8544 28.5053 21.5317 28.9154 21.5438Z" fill="#2382FF"/>
<path fill-rule="evenodd" clip-rule="evenodd" d="M22.394 30.0085C22.4773 30.0063 22.591 30.0054 22.7338 30.0054C22.8748 30.0054 23.0066 30.0447 23.1189 30.1129C23.5014 30.1506 24.0101 30.2014 24.5608 30.2654C25.4195 30.3652 26.4251 30.5019 27.3469 30.6871C28.2433 30.8673 29.1514 31.1099 29.7561 31.4555C29.9692 31.5772 30.1296 31.7685 30.2079 32.0062C30.2794 32.2234 30.2664 32.4298 30.2374 32.5843C30.1815 32.8814 30.0286 33.1762 29.8774 33.4236C29.5633 33.9377 29.0657 34.5453 28.5721 35.1175C28.3217 35.4077 28.0634 35.6988 27.8191 35.9741L27.8172 35.9763C27.5707 36.2542 27.3396 36.5146 27.1377 36.75C26.934 36.9873 26.7711 37.1862 26.6577 37.3414C26.6008 37.4192 26.5646 37.4749 26.5439 37.5111C26.542 37.5144 26.5404 37.5173 26.539 37.5199C26.4342 37.8889 26.0615 38.1211 25.6788 38.0446C25.2765 37.9641 25.0156 37.5728 25.0961 37.1705C25.129 37.0058 25.2024 36.8641 25.254 36.7737C25.3126 36.6712 25.3839 36.5662 25.4581 36.4647C25.6068 36.2613 25.8003 36.027 26.0101 35.7824C26.221 35.5367 26.4599 35.2674 26.7035 34.9929L26.7058 34.9903C26.9518 34.713 27.2039 34.4288 27.4472 34.1469C27.9421 33.5733 28.3659 33.0478 28.6097 32.6489C28.6253 32.6234 28.6397 32.599 28.653 32.5759C28.2574 32.4217 27.7074 32.2751 27.0542 32.1438C26.1907 31.9702 25.2313 31.8391 24.3892 31.7412C23.8119 31.6741 23.3101 31.6247 22.926 31.5869C22.7437 31.569 22.5879 31.5537 22.4631 31.5403C22.3729 31.5306 22.287 31.5207 22.2232 31.5106C22.2225 31.5105 22.2218 31.5104 22.221 31.5103C22.1999 31.507 22.1325 31.4964 22.0635 31.4739C22.0427 31.4671 21.9985 31.452 21.9467 31.4251C21.9461 31.4248 21.9454 31.4244 21.9446 31.424C21.9147 31.4087 21.7623 31.3303 21.6531 31.1524C21.5843 31.0404 21.5246 30.874 21.5482 30.675C21.5712 30.4819 21.6626 30.3437 21.7365 30.2624C21.8589 30.1277 21.9977 30.0761 22.0275 30.065C22.0282 30.0648 22.0289 30.0646 22.0294 30.0643C22.1109 30.0339 22.1825 30.0241 22.1992 30.0218C22.1998 30.0217 22.2004 30.0216 22.2008 30.0216C22.2293 30.0176 22.2552 30.0154 22.2737 30.014C22.3115 30.0112 22.3533 30.0096 22.394 30.0085ZM26.5307 37.5361C26.5306 37.5362 26.5312 37.5349 26.5325 37.5323C26.5314 37.5348 26.5308 37.5361 26.5307 37.5361ZM22.4469 30.0416C22.4471 30.0416 22.4497 30.042 22.4543 30.0429C22.449 30.0421 22.4467 30.0417 22.4469 30.0416Z" fill="#2382FF"/>
</svg>
