<svg width="43" height="79" viewBox="0 0 43 79" fill="none" xmlns="http://www.w3.org/2000/svg">
<path fill-rule="evenodd" clip-rule="evenodd" d="M35.8322 4.06269C36.0681 4.13863 36.192 4.39369 36.1089 4.63238C35.7932 5.53912 35.2638 6.32379 34.6902 7.03899C34.4032 7.3969 34.1005 7.74299 33.8047 8.079L33.7295 8.16435C33.4579 8.4727 33.1938 8.77253 32.9441 9.07595C32.7826 9.27211 32.4968 9.30486 32.3058 9.1491C32.1148 8.99334 32.0908 8.70806 32.2523 8.5119C32.5127 8.19558 32.7872 7.88395 33.0568 7.57783L33.1332 7.49105C33.4295 7.15456 33.719 6.82332 33.9908 6.48437C34.5349 5.80583 34.9895 5.11857 35.2545 4.35737C35.3376 4.11869 35.5963 3.98675 35.8322 4.06269ZM28.5938 3.33193C28.842 3.29311 29.0684 3.46224 29.0996 3.70968C29.1879 4.41083 29.1436 5.1065 29.0838 5.76591C29.0721 5.89534 29.0599 6.02286 29.0478 6.14886C28.9969 6.67843 28.9487 7.18105 28.9522 7.68484C28.9539 7.93513 28.7525 8.14566 28.5024 8.15506C28.2522 8.16445 28.0481 7.96916 28.0464 7.71886C28.0426 7.16368 28.0965 6.60324 28.1478 6.07048L28.1478 6.07047L28.1478 6.07046L28.1478 6.07033L28.1478 6.07024C28.1595 5.9491 28.171 5.82939 28.1817 5.71151C28.2406 5.06109 28.2762 4.4484 28.2008 3.85027C28.1697 3.60282 28.3456 3.37075 28.5938 3.33193ZM38.9855 10.1294C39.1612 9.94578 39.1592 9.65883 38.9811 9.48849C38.8031 9.31814 38.5163 9.32891 38.3407 9.51255C37.3912 10.5051 36.7684 11.1442 35.6098 11.6863C35.3805 11.7935 35.2759 12.0639 35.376 12.2903C35.4761 12.5166 35.7431 12.6132 35.9723 12.506C37.3058 11.8822 38.0348 11.1234 38.9855 10.1294Z" fill="#FF6523"/>
<path fill-rule="evenodd" clip-rule="evenodd" d="M21.6291 10.9511C26.2567 10.784 30.5957 12.0407 33.7224 15.6654C36.2769 18.6267 37.2879 22.7437 36.1479 26.5367C35.0677 30.1307 32.0708 33.3487 28.8472 35.1128C24.318 37.5913 19.4617 37.5274 14.7257 36.0553C10.3074 34.682 5.7405 31.3045 5.07954 26.3628C5.07495 26.3625 5.07035 26.3622 5.06575 26.3618C4.68948 26.3313 4.40922 26.0015 4.43978 25.6252C5.1536 16.8361 13.2291 11.2543 21.6291 10.9511ZM5.95947 24.5038C6.19846 24.6103 6.36506 24.85 6.36506 25.1285C6.36506 29.8458 10.578 33.3345 15.1315 34.7498C19.6208 36.1453 24.0735 36.1668 28.1909 33.9135C31.1656 32.2857 33.8817 29.3272 34.8386 26.1432C35.8351 22.8279 34.9578 19.1904 32.6873 16.5583C29.9089 13.3375 26.0264 12.1603 21.6784 12.3173C14.1707 12.5883 7.21949 17.2967 5.95947 24.5038Z" fill="#FF6523"/>
<path fill-rule="evenodd" clip-rule="evenodd" d="M26.5206 21.4879C26.4357 21.6861 26.3621 21.8578 26.3142 21.9567C26.1512 22.2927 25.7467 22.4331 25.4106 22.2702C25.0745 22.1072 24.9341 21.7027 25.0971 21.3666C25.133 21.2926 25.1837 21.1739 25.2533 21.0112L25.2533 21.0111C25.3058 20.8882 25.3691 20.7402 25.4449 20.5673C25.6104 20.1896 25.819 19.733 26.0503 19.3043C26.2753 18.8873 26.5477 18.447 26.8515 18.1354C27.0028 17.9802 27.2015 17.8152 27.4469 17.7223C27.7178 17.6197 28.038 17.6107 28.3427 17.7748C29.0198 18.1394 29.5868 18.7671 30.0408 19.3771C30.4651 19.9473 30.8342 20.5638 31.1261 21.0514L31.1261 21.0514L31.1991 21.1733C31.3913 21.4936 31.2874 21.909 30.9671 22.1011C30.6469 22.2933 30.2315 22.1895 30.0393 21.8692L29.97 21.7536C29.6732 21.2582 29.3374 20.6976 28.9557 20.1846C28.5865 19.6884 28.2132 19.2917 27.8472 19.0527C27.8387 19.0607 27.8296 19.0697 27.8199 19.0797C27.6523 19.2516 27.452 19.5549 27.2406 19.9466C27.0355 20.3268 26.8442 20.744 26.6838 21.11C26.6274 21.2388 26.5719 21.3682 26.5206 21.4879ZM15.8187 22.4387L15.8033 22.4766C15.6632 22.8228 15.2689 22.9899 14.9227 22.8497C14.5765 22.7096 14.4094 22.3153 14.5496 21.9691L14.5669 21.9262L14.5669 21.9262C14.6817 21.6411 15.0186 20.8048 15.4243 20.1233C15.6281 19.7808 15.9028 19.3827 16.2356 19.1453C16.4093 19.0214 16.6696 18.8904 16.988 18.9149C17.3282 18.9411 17.5833 19.1317 17.7537 19.3508C18.3108 20.067 18.9516 20.6107 19.736 21.0814C20.0563 21.2735 20.1602 21.6889 19.968 22.0092C19.7758 22.3295 19.3604 22.4334 19.0402 22.2412C18.2102 21.7432 17.4947 21.1583 16.8659 20.4045C16.7878 20.5006 16.693 20.6362 16.5866 20.8151C16.237 21.4023 15.9347 22.1512 15.8187 22.4387ZM17.0321 20.2392C17.0321 20.2393 17.0311 20.2399 17.0292 20.2409C17.0312 20.2397 17.0321 20.2392 17.0321 20.2392ZM26.5663 26.9228C26.7584 26.6025 26.6546 26.1871 26.3343 25.9949C26.014 25.8027 25.5986 25.9066 25.4065 26.2269C25.2236 26.5317 25.0595 26.8876 24.9074 27.2238L24.8521 27.3463C24.7145 27.6515 24.5813 27.9467 24.4338 28.2284C24.0875 28.8902 23.748 29.3007 23.3539 29.4545C22.9108 29.6274 22.4183 29.4812 21.8013 28.9997C21.3695 28.6627 21 28.2652 20.6417 27.8796L20.6417 27.8796C20.4761 27.7015 20.3129 27.5259 20.1471 27.3601C19.883 27.096 19.4548 27.096 19.1907 27.3601C18.9266 27.6242 18.9266 28.0524 19.1907 28.3165C19.2945 28.4203 19.4197 28.5548 19.5612 28.7068L19.5612 28.7068C19.9448 29.1188 20.4483 29.6595 20.9692 30.0661C21.6968 30.6338 22.7149 31.1558 23.8456 30.7146C24.7307 30.3692 25.2648 29.5576 25.6322 28.8556C25.7994 28.5362 25.9498 28.2026 26.0856 27.9013L26.0856 27.9012L26.1398 27.7812C26.2953 27.4375 26.4295 27.1507 26.5663 26.9228Z" fill="#FF6523"/>
<path fill-rule="evenodd" clip-rule="evenodd" d="M40.4277 44.3399C40.3938 44.3029 40.3357 44.2491 40.2371 44.1767C39.7336 43.8069 38.901 43.5541 38.1583 43.4528C38.1599 43.4531 38.1573 43.4528 38.151 43.4523L38.151 43.4523C38.1305 43.4505 38.0703 43.4453 37.9807 43.44C37.8942 43.435 37.7959 43.4308 37.7035 43.43C37.5123 43.6083 37.1843 43.629 36.9627 43.4745C36.9193 43.4442 36.862 43.3988 36.8136 43.3363C36.7647 43.2731 36.7063 43.1676 36.7178 43.0325C36.7214 42.9908 36.7304 42.9527 36.7436 42.9181C36.7509 42.8454 36.7799 42.7731 36.8322 42.7082C37.0838 42.396 37.1883 41.9145 37.0766 41.488C36.9682 41.074 36.6865 40.7936 36.2472 40.7176C35.8251 40.6445 35.4476 40.8334 35.2228 41.2161C34.9912 41.6104 35.0172 42.0668 35.2787 42.3451C35.4043 42.4786 35.4235 42.6532 35.3468 42.7982C35.3407 42.8194 35.3326 42.8405 35.3225 42.8614C35.282 42.945 35.2057 43.0667 35.0521 43.1527C34.8774 43.2505 34.6977 43.251 34.5815 43.2351C34.4989 43.2237 34.4151 43.1977 34.3949 43.1915L34.3911 43.1903L34.3779 43.1865C34.1148 43.1614 33.8539 43.144 33.5826 43.1259L33.5826 43.1259C33.4954 43.1201 33.407 43.1142 33.3172 43.108C32.9495 43.0824 32.5662 43.0515 32.1788 42.9953C31.6632 42.9205 31.1113 42.8217 30.5687 42.7246C30.1661 42.6525 29.7686 42.5813 29.3948 42.5215C28.4753 42.3745 27.5833 42.274 26.711 42.305C26.4165 42.3154 26.1676 42.1252 26.155 41.8801C26.1425 41.635 26.371 41.4278 26.6655 41.4174C27.6605 41.382 28.6475 41.4974 29.5962 41.6491C30.0319 41.7188 30.4403 41.7923 30.8398 41.8642C31.3487 41.9558 31.8433 42.0448 32.3621 42.1201C32.7006 42.1692 33.045 42.1976 33.4059 42.2226C33.4875 42.2283 33.5705 42.2338 33.6545 42.2394L33.6549 42.2394C33.7912 42.2485 33.9302 42.2578 34.0703 42.2681C33.918 41.7788 34.0154 41.2491 34.2638 40.826C34.6313 40.2003 35.4218 39.6672 36.4645 39.8478C37.4306 40.015 37.9492 40.6485 38.1195 41.2988C38.2257 41.7042 38.2086 42.1481 38.0716 42.5547C38.1967 42.5623 38.2951 42.5712 38.3308 42.5761C39.1756 42.6913 40.23 42.9866 40.9434 43.5106C41.3166 43.7847 41.6602 44.1617 41.501 44.5963C41.4265 44.7993 41.2618 44.9397 41.1072 45.0325C40.9523 45.1254 40.7739 45.1914 40.6048 45.2402C40.4176 45.2943 40.208 45.3363 39.9969 45.3691C40.1136 45.491 40.2206 45.6212 40.3131 45.7569C40.6037 46.1832 40.7983 46.7366 40.5785 47.2805C40.4526 47.5919 40.1971 47.8276 39.8164 47.9016C39.4867 47.9656 39.1669 47.8853 38.937 47.8006C38.8748 47.7778 38.8132 47.7523 38.7527 47.7249C38.7448 47.8961 38.7043 48.0785 38.603 48.2458C38.449 48.5002 38.1688 48.6909 37.7763 48.7402C37.2877 48.8016 36.8298 48.6442 36.4904 48.4483C36.1465 48.2499 35.8515 47.9717 35.6806 47.6853C35.5496 47.4656 35.6573 47.199 35.9213 47.0899C36.1853 46.9808 36.5056 47.0705 36.6367 47.2902C36.7206 47.4309 36.8896 47.5976 37.0985 47.7182C37.3118 47.8413 37.4956 47.877 37.6169 47.8617C37.6433 47.8584 37.6437 47.8577 37.6472 47.8508C37.6479 47.8494 37.6487 47.8478 37.6499 47.8459C37.671 47.8111 37.695 47.7299 37.684 47.5954C37.6735 47.4673 37.6339 47.3273 37.5777 47.2055C37.5173 47.0746 37.458 47.0077 37.4407 46.9936C37.2302 46.822 37.2268 46.5407 37.433 46.3655C37.6393 46.1902 37.9772 46.1874 38.1877 46.3591C38.1985 46.3678 38.2091 46.3768 38.2195 46.386C38.3539 46.3877 38.4877 46.4314 38.59 46.517C38.7472 46.6485 39.0766 46.8806 39.3687 46.9881C39.4609 47.0221 39.519 47.0322 39.549 47.0351C39.5539 47.0264 39.56 47.0141 39.5668 46.9972C39.6514 46.7879 39.5976 46.5075 39.3847 46.1953C39.1806 45.8959 38.8736 45.6353 38.5994 45.4876C38.3585 45.4585 38.165 45.2941 38.1446 45.0836C38.1209 44.8391 38.3399 44.6249 38.6337 44.6052C38.6678 44.6029 38.7048 44.6005 38.7441 44.598L38.7446 44.598C39.1491 44.572 39.8099 44.5295 40.2547 44.401C40.3293 44.3794 40.3861 44.3585 40.4277 44.3399ZM40.4735 44.4038C40.4734 44.4038 40.4727 44.4024 40.4721 44.3996C40.4734 44.4024 40.4737 44.4038 40.4735 44.4038ZM40.5031 44.2982L40.504 44.2974C40.504 44.2974 40.5037 44.2976 40.5031 44.2982ZM39.5358 47.0539C39.5357 47.0537 39.5367 47.0525 39.5388 47.0509C39.5369 47.0532 39.5358 47.054 39.5358 47.0539Z" fill="#FF6523"/>
<path fill-rule="evenodd" clip-rule="evenodd" d="M2.20846 45.186C2.237 45.1494 2.28669 45.0956 2.37254 45.0221C2.81124 44.6466 3.56759 44.3607 4.25291 44.2219C4.25149 44.2221 4.25386 44.2218 4.25973 44.2209C4.27875 44.218 4.33451 44.2095 4.41779 44.1993C4.49819 44.1894 4.58975 44.1797 4.67602 44.1734C4.86997 44.3286 5.17831 44.3285 5.37207 44.1709C5.41002 44.14 5.45967 44.0941 5.49952 44.0329C5.53982 43.9709 5.58533 43.8688 5.56293 43.7433C5.55601 43.7045 5.54427 43.6695 5.52903 43.6379C5.51592 43.5704 5.48261 43.5047 5.42816 43.4471C5.16624 43.1704 5.0271 42.7266 5.09481 42.3214C5.16055 41.928 5.39974 41.6493 5.80372 41.552C6.1918 41.4586 6.56087 41.6126 6.80384 41.9569C7.05414 42.3116 7.06917 42.7397 6.84863 43.0153C6.74281 43.1476 6.73987 43.3119 6.82406 43.4428C6.83158 43.4622 6.8409 43.4814 6.8521 43.5003C6.89715 43.576 6.97896 43.6852 7.12992 43.7564C7.30154 43.8374 7.46952 43.8272 7.57671 43.8053C7.65292 43.7898 7.72902 43.7605 7.74732 43.7535L7.75085 43.7521L7.76282 43.7478C8.00652 43.7087 8.24887 43.6769 8.50077 43.6439L8.50078 43.6438L8.50089 43.6438C8.58191 43.6332 8.66392 43.6224 8.74728 43.6113C9.08866 43.5655 9.44425 43.5138 9.8014 43.4382C10.2768 43.3376 10.7841 43.2124 11.2827 43.0893L11.2828 43.0893C11.6528 42.9979 12.0182 42.9077 12.3623 42.8296C13.2089 42.6375 14.0339 42.4904 14.8517 42.4674C15.1277 42.4596 15.344 42.267 15.3347 42.0372C15.3253 41.8074 15.094 41.6274 14.8179 41.6352C13.8849 41.6614 12.9726 41.8281 12.0991 42.0263C11.6979 42.1174 11.3226 42.2104 10.9554 42.3014L10.9554 42.3014L10.9554 42.3014C10.4877 42.4173 10.0332 42.53 9.55489 42.6312C9.24278 42.6973 8.92334 42.7443 8.58822 42.7892C8.51248 42.7994 8.43542 42.8095 8.35741 42.8197L8.35706 42.8198C8.23045 42.8364 8.10133 42.8533 7.97132 42.8713C8.07152 42.4049 7.93501 41.9158 7.66642 41.5352C7.26925 40.9724 6.48467 40.5214 5.5258 40.7522C4.63742 40.966 4.20722 41.5889 4.10397 42.2067C4.03961 42.5918 4.09381 43.0056 4.25669 43.3774C4.14046 43.392 4.04931 43.4061 4.01633 43.4128C3.23679 43.5708 2.27685 43.9096 1.65528 44.4417C1.33011 44.7201 1.04138 45.0929 1.2276 45.4895C1.31461 45.6748 1.48065 45.7962 1.63309 45.8736C1.78576 45.9512 1.95819 46.0023 2.12045 46.0379C2.30009 46.0773 2.49969 46.104 2.69991 46.1221C2.60121 46.243 2.51238 46.3712 2.4376 46.5035C2.20266 46.9192 2.0684 47.448 2.32056 47.9431C2.46499 48.2267 2.72406 48.4317 3.08617 48.4781C3.39975 48.5183 3.69165 48.4242 3.89927 48.3314C3.9554 48.3063 4.01081 48.2788 4.06511 48.2496C4.08714 48.4092 4.14064 48.5772 4.24972 48.7275C4.41557 48.9561 4.69375 49.1176 5.06479 49.1403C5.5267 49.1686 5.94102 48.9942 6.2414 48.7909C6.54569 48.585 6.79744 48.3075 6.93248 48.0297C7.03608 47.8166 6.91247 47.5739 6.65639 47.4877C6.40031 47.4014 6.10872 47.5043 6.00512 47.7174C5.9388 47.8539 5.7952 48.0198 5.61033 48.1449C5.42154 48.2726 5.25288 48.3169 5.1382 48.3099C5.11322 48.3084 5.11283 48.3077 5.10895 48.3015C5.10819 48.3002 5.10729 48.2988 5.10604 48.297C5.08334 48.2658 5.05391 48.1913 5.05264 48.065C5.05143 47.9447 5.07643 47.8115 5.11846 47.6943C5.16361 47.5684 5.21325 47.5024 5.2282 47.4882C5.41018 47.3152 5.38923 47.0522 5.18139 46.9007C4.97356 46.7492 4.65755 46.7667 4.47557 46.9397C4.46627 46.9485 4.45716 46.9575 4.44824 46.9668C4.32271 46.9763 4.20138 47.0251 4.11311 47.1112C3.97753 47.2435 3.6897 47.48 3.42596 47.5979C3.34269 47.6351 3.2893 47.648 3.26151 47.6525C3.25618 47.6447 3.24947 47.6336 3.2416 47.6181C3.14454 47.4275 3.17078 47.1623 3.34282 46.8579C3.50796 46.5657 3.77271 46.3038 4.01646 46.1495C4.23869 46.1077 4.40504 45.9427 4.40597 45.745C4.40706 45.5151 4.184 45.3279 3.90776 45.327C3.87559 45.3269 3.84071 45.3269 3.80354 45.3269C3.42324 45.3267 2.80212 45.3263 2.37541 45.2327C2.30389 45.217 2.24898 45.2009 2.20846 45.186ZM2.17115 45.2484C2.1713 45.2484 2.17178 45.247 2.17215 45.2444C2.17119 45.2471 2.171 45.2485 2.17115 45.2484ZM2.13444 45.1515L2.13353 45.1508C2.13351 45.1508 2.1338 45.151 2.13444 45.1515ZM3.27486 47.6685C3.2753 47.6689 3.2755 47.6692 3.27549 47.6692C3.27546 47.6694 3.27441 47.6687 3.27244 47.6666C3.27356 47.6674 3.27436 47.668 3.27486 47.6685Z" fill="#FF6523"/>
<path d="M16.2586 66.2734V67.8457H21.1532V69.0762H9.88755V67.8457H14.7547V66.2734H16.2586ZM10.4207 65.7539C12.704 65.5283 14.1874 64.6328 14.4403 63.6211H10.9129V62.4043H20.1415V63.6211H16.5799C16.8329 64.626 18.3163 65.5283 20.62 65.7539L20.0731 66.9434C17.8309 66.7109 16.1766 65.8359 15.5067 64.5918C14.8368 65.8359 13.1961 66.7109 10.954 66.9434L10.4207 65.7539ZM11.2 72.0293C11.2 70.6416 12.8065 69.8691 15.5067 69.8691C18.1864 69.8691 19.7791 70.6416 19.786 72.0293C19.7791 73.4307 18.1864 74.2031 15.5067 74.2031C12.8065 74.2031 11.2 73.4307 11.2 72.0293ZM12.745 72.0293C12.7381 72.7061 13.6883 73.0547 15.5067 73.0547C17.2909 73.0547 18.2547 72.7061 18.2684 72.0293C18.2547 71.373 17.2909 71.0381 15.5067 71.0312C13.6883 71.0381 12.7381 71.373 12.745 72.0293ZM33.1261 71.5234V72.7812H21.8332V71.5234H24.8273V69.4863H23.173V65.4531H30.2824V63.9355H23.1457V62.7051H31.7863V66.6699H24.6906V68.2559H32.0734V69.4863H30.2687V71.5234H33.1261ZM26.3039 71.5234H28.7785V69.4863H26.3039V71.5234Z" fill="#FF6523"/>
</svg>
