<svg width="51" height="72" viewBox="0 0 51 72" fill="none" xmlns="http://www.w3.org/2000/svg">
<path d="M14.7349 64.4688V65.7129H3.44194V64.4688H8.30913V61.7754H4.68608V55.8145H13.4361V61.7754H9.81303V64.4688H14.7349ZM6.17631 60.5859H11.9322V57.0312H6.17631V60.5859ZM22.6747 55.5957V56.8125H20.077C20.0975 58.2617 21.1639 59.6562 23.1122 60.2031L22.3465 61.3926C20.9178 60.9688 19.8856 60.0732 19.325 58.9316C18.7645 60.1621 17.7118 61.1328 16.2352 61.5977L15.4696 60.4082C17.4452 59.8271 18.5116 58.3506 18.5458 56.8125H15.8797V55.5957H22.6747ZM17.5067 67.0664V62.1035H19.0106V63.375H24.1649V62.1035H25.6825V67.0664H17.5067ZM19.0106 65.8359H24.1649V64.5508H19.0106V65.8359ZM24.1512 61.5566V54.8574H25.6825V61.5566H24.1512ZM31.0656 55.3906C32.8703 55.3906 34.1554 56.3955 34.1691 57.8789C34.1554 59.1094 33.2326 60.0322 31.8585 60.2852V61.2832C32.8908 61.2217 33.923 61.1328 34.88 60.9961L35.0031 62.1035C32.4328 62.5615 29.5617 62.6162 27.4699 62.6094L27.3058 61.3926C28.1945 61.3926 29.2335 61.3857 30.3273 61.3516V60.292C28.9123 60.0527 27.9689 59.1299 27.9757 57.8789C27.9689 56.3955 29.2541 55.3906 31.0656 55.3906ZM29.0011 66.957V63.4707H30.5187V65.7266H37.5597V66.957H29.0011ZM29.3976 57.8789C29.3839 58.6924 30.0812 59.1982 31.0656 59.2051C32.0568 59.1982 32.7267 58.6924 32.7335 57.8789C32.7267 57.0449 32.0568 56.5527 31.0656 56.5527C30.0812 56.5527 29.3839 57.0449 29.3976 57.8789ZM35.6046 64.3047V54.8711H37.1222V58.8633H38.7902V60.1211H37.1222V64.3047H35.6046ZM50.5717 64.5234V65.7812H39.2788V64.5234H42.2729V62.4863H40.6186V58.4531H47.728V56.9355H40.5913V55.7051H49.2319V59.6699H42.1362V61.2559H49.519V62.4863H47.7143V64.5234H50.5717ZM43.7495 64.5234H46.2241V62.4863H43.7495V64.5234Z" fill="#8623FF"/>
<path fill-rule="evenodd" clip-rule="evenodd" d="M28.3519 7.67845C28.625 7.43564 29.0433 7.46025 29.2861 7.73341C29.6288 8.11895 29.7853 8.6108 29.8718 9.02432C29.9419 9.35944 29.9783 9.71321 30.007 9.99283L30.007 9.99285C30.0138 10.0592 30.0202 10.1214 30.0265 10.1782C30.0668 10.5414 29.8051 10.8686 29.4419 10.9089C29.0786 10.9493 28.7514 10.6876 28.7111 10.3243C28.7025 10.2471 28.6946 10.1707 28.6867 10.095L28.6867 10.095L28.6867 10.0949C28.6583 9.82088 28.6309 9.55619 28.5764 9.29538C28.5065 8.96136 28.4106 8.74055 28.2969 8.61269C28.0541 8.33953 28.0787 7.92126 28.3519 7.67845ZM20.991 8.96657C21.3178 8.80312 21.7153 8.93562 21.8788 9.26251C22.0525 9.60993 22.1654 9.96767 22.2609 10.2701L22.2659 10.2861C22.3676 10.608 22.4514 10.8696 22.5715 11.1098C22.735 11.4367 22.6025 11.8342 22.2756 11.9976C21.9487 12.1611 21.5512 12.0286 21.3877 11.7017C21.2172 11.3606 21.1056 11.0069 21.0109 10.7069L21.0039 10.6846C20.9026 10.3639 20.8175 10.0994 20.695 9.8544C20.5316 9.52751 20.6641 9.13001 20.991 8.96657ZM31.7667 16.5063C31.9694 16.2023 31.8872 15.7914 31.5831 15.5887C31.279 15.3859 30.8682 15.4681 30.6654 15.7722C29.5337 17.4698 27.5949 18.1887 25.704 17.3783C25.368 17.2343 24.979 17.39 24.835 17.7259C24.6911 18.0618 24.8467 18.4508 25.1826 18.5948C27.7371 19.6896 30.3297 18.6618 31.7667 16.5063Z" fill="#8623FF"/>
<path fill-rule="evenodd" clip-rule="evenodd" d="M9.85677 43.2832C9.81174 43.2393 9.7486 43.1666 9.66899 43.0482C9.26222 42.4436 9.11192 41.5375 9.15883 40.7618C9.15881 40.7622 9.15881 40.7623 9.15885 40.7622L9.15909 40.7606L9.15993 40.7542L9.15993 40.7542C9.1627 40.7331 9.17082 40.671 9.18663 40.5792C9.2019 40.4907 9.22165 40.3904 9.24462 40.2969C9.55419 40.1507 9.67027 39.8252 9.5032 39.5613C9.47048 39.5096 9.41929 39.4399 9.341 39.3747C9.26183 39.3088 9.12341 39.2223 8.92368 39.1986C8.86196 39.1913 8.80421 39.1905 8.75042 39.1947C8.64256 39.183 8.52973 39.1934 8.42148 39.2291C7.90105 39.4012 7.17244 39.3807 6.58066 39.1565C6.00614 38.9388 5.67163 38.5812 5.67582 38.1181C5.67984 37.6733 6.05368 37.3418 6.66985 37.2152C7.30464 37.0848 7.96246 37.2303 8.29924 37.567C8.46093 37.7287 8.71032 37.7937 8.94168 37.7541C8.97398 37.7535 9.00663 37.7509 9.03942 37.7462C9.17178 37.7272 9.36903 37.682 9.53448 37.5496C9.72257 37.399 9.77037 37.2178 9.7775 37.0964C9.78257 37.0101 9.76665 36.9188 9.76282 36.8968L9.7621 36.8926L9.76006 36.8783C9.79234 36.6063 9.8353 36.3385 9.87994 36.0602L9.88 36.0599C9.89435 35.9704 9.90887 35.8799 9.92327 35.7877C9.98229 35.4102 10.0375 35.0153 10.0571 34.6099C10.0831 34.0701 10.0836 33.4875 10.0841 32.9148L10.0841 32.9147C10.0845 32.4897 10.0849 32.0701 10.0956 31.6774C10.1222 30.7114 10.2092 29.7852 10.4825 28.9134C10.5748 28.619 10.3629 28.3181 10.0093 28.2413C9.65568 28.1645 9.29419 28.3409 9.20191 28.6352C8.89007 29.6298 8.79986 30.6556 8.7725 31.6523C8.75993 32.1101 8.76012 32.5413 8.76031 32.9631L8.76031 32.9632L8.76031 32.9632C8.76055 33.5005 8.76079 34.0228 8.73463 34.5657C8.71757 34.9201 8.66877 35.275 8.61083 35.6456C8.59773 35.7294 8.58406 35.8146 8.57022 35.9009L8.57018 35.9011C8.54773 36.041 8.52483 36.1837 8.50321 36.3278C7.83049 36.0461 7.03378 36.0058 6.35263 36.1457C5.3454 36.3527 4.3623 37.0107 4.35236 38.1098C4.34315 39.1281 5.12987 39.8171 6.03223 40.159C6.5948 40.3722 7.24577 40.4711 7.87373 40.4393C7.85202 40.5675 7.83927 40.6691 7.83701 40.7064C7.78365 41.5887 7.93786 42.7297 8.51419 43.5864C8.81569 44.0346 9.27481 44.4799 9.94924 44.433C10.2644 44.411 10.5119 44.2815 10.6875 44.1498C10.8633 44.018 11.006 43.8552 11.1215 43.6974C11.2492 43.5227 11.3652 43.3221 11.4683 43.1176C11.6152 43.2674 11.7769 43.4094 11.9503 43.5382C12.495 43.9429 13.25 44.284 14.0995 44.2046C14.586 44.1591 14.996 43.963 15.2033 43.5983C15.3828 43.2825 15.3496 42.9389 15.2865 42.6847C15.2694 42.616 15.2484 42.5472 15.2244 42.4789C15.4758 42.5158 15.7519 42.5227 16.0221 42.4643C16.4329 42.3754 16.7838 42.1427 16.9584 41.7596C17.1757 41.2828 17.0663 40.7797 16.8698 40.386C16.6709 39.9872 16.343 39.6168 15.9707 39.3695C15.685 39.1798 15.2686 39.2187 15.0407 39.4565C14.8127 39.6943 14.8595 40.0408 15.1452 40.2306C15.328 40.352 15.5267 40.5661 15.6475 40.8085C15.771 41.0559 15.7748 41.2506 15.7209 41.369C15.7091 41.3948 15.708 41.395 15.697 41.3967C15.6956 41.3969 15.694 41.3972 15.6921 41.3975C15.6912 41.3977 15.6902 41.3979 15.6892 41.3981C15.633 41.4103 15.5084 41.4132 15.3155 41.367C15.1317 41.3229 14.9383 41.2463 14.7755 41.1577C14.6007 41.0625 14.5189 40.9853 14.5029 40.9641C14.308 40.7068 13.8993 40.6298 13.5902 40.792C13.281 40.9542 13.1884 41.2944 13.3834 41.5517C13.3933 41.5648 13.4036 41.5778 13.4143 41.5907C13.3815 41.7268 13.4101 41.8732 13.508 41.9989C13.6584 42.1919 13.9102 42.5849 13.9903 42.9077C14.0157 43.0096 14.0152 43.0708 14.0116 43.1019C13.9976 43.1045 13.9782 43.1074 13.9517 43.1099C13.6247 43.1405 13.2306 43.0128 12.8316 42.7164C12.4489 42.432 12.1497 42.054 12.0065 41.7386C12.0268 41.4882 11.8382 41.2502 11.5372 41.1746C11.1873 41.0868 10.818 41.2516 10.7125 41.5428C10.7002 41.5768 10.687 41.6136 10.673 41.6528C10.5292 42.0541 10.2945 42.7096 9.99092 43.1246C9.94004 43.1942 9.89471 43.2461 9.85677 43.2832ZM9.93782 43.3461C9.93784 43.346 9.93593 43.345 9.93205 43.3436C9.93586 43.3456 9.9378 43.3463 9.93782 43.3461ZM9.77627 43.3483L9.77485 43.349C9.77485 43.3491 9.77532 43.3488 9.77627 43.3483ZM14.0423 43.0934C14.0421 43.0933 14.0402 43.094 14.0372 43.0956C14.041 43.0943 14.0426 43.0935 14.0423 43.0934Z" fill="#8623FF"/>
<path fill-rule="evenodd" clip-rule="evenodd" d="M41.9798 43.1578C42.0169 43.1091 42.0671 43.0296 42.1258 42.9031C42.4258 42.2567 42.4207 41.342 42.2426 40.5796C42.2429 40.5812 42.2422 40.5787 42.2403 40.5724L42.2402 40.5723L42.2402 40.5722C42.2339 40.5516 42.2153 40.4912 42.1841 40.4022C42.1539 40.3163 42.1173 40.2193 42.0787 40.1295C41.7474 40.0212 41.5772 39.7126 41.6978 39.4317C41.7214 39.3767 41.7603 39.3016 41.8267 39.2279C41.8939 39.1534 42.0162 39.0514 42.2099 39.0045C42.2699 38.9899 42.327 38.9823 42.381 38.9802C42.4858 38.956 42.5992 38.953 42.7123 38.9757C43.2567 39.0848 43.9746 38.9788 44.5223 38.6872C45.0541 38.4041 45.3245 38.0107 45.2418 37.5528C45.1622 37.1129 44.7359 36.8287 44.1044 36.7759C43.4538 36.7214 42.8273 36.9429 42.5511 37.3159C42.4184 37.495 42.1823 37.5888 41.9464 37.5766C41.9144 37.5798 41.8818 37.581 41.8487 37.5802C41.7145 37.577 41.5115 37.5555 41.3253 37.4438C41.1135 37.3168 41.0354 37.1431 41.0077 37.0238C40.9881 36.939 40.9883 36.8467 40.9884 36.8245L40.9884 36.8202L40.988 36.8058C40.9098 36.5404 40.8218 36.2803 40.7304 36.01L40.7303 36.0097C40.7009 35.9228 40.6711 35.8349 40.6412 35.7454C40.5187 35.3786 40.3969 34.9942 40.3088 34.5951C40.1914 34.0638 40.0919 33.4872 39.9942 32.9202L39.9942 32.9202L39.9942 32.9201C39.9216 32.4994 39.85 32.0841 39.7726 31.6966C39.5823 30.7434 39.339 29.8367 38.9203 29.0058C38.779 28.7253 38.9376 28.4025 39.2747 28.2849C39.6117 28.1672 39.9995 28.2993 40.1408 28.5798C40.6184 29.5277 40.8819 30.5326 41.0782 31.5161C41.1684 31.9678 41.2414 32.3947 41.3129 32.8124L41.3129 32.8124C41.4039 33.3444 41.4923 33.8614 41.6104 34.3958C41.6875 34.7446 41.7961 35.0902 41.9163 35.4503C41.9436 35.5318 41.9716 35.6146 42 35.6985L42 35.6985C42.046 35.8344 42.0929 35.973 42.1387 36.113C42.7569 35.7551 43.5387 35.6214 44.2368 35.6798C45.2691 35.7663 46.354 36.302 46.5505 37.3889C46.7325 38.3959 46.0707 39.1705 45.2355 39.6152C44.7147 39.8924 44.0871 40.0668 43.46 40.1093C43.5033 40.2336 43.5331 40.3326 43.5417 40.3693C43.7444 41.2365 43.7854 42.3842 43.3604 43.3001C43.138 43.7792 42.7591 44.2741 42.0835 44.3069C41.7678 44.3222 41.5007 44.2232 41.3046 44.1135C41.1082 44.0036 40.9392 43.8593 40.7981 43.7166C40.642 43.5587 40.4931 43.3738 40.3563 43.1835C40.2363 43.349 40.1003 43.5086 39.9506 43.6564C39.4801 44.1212 38.7906 44.5477 37.9362 44.569C37.4468 44.5811 37.0076 44.4352 36.7404 44.0986C36.5091 43.8071 36.4837 43.463 36.503 43.204C36.5082 43.134 36.5173 43.0634 36.5295 42.993C36.2869 43.0591 36.0147 43.0984 35.7373 43.0724C35.3155 43.0327 34.9286 42.8436 34.6908 42.4849C34.3947 42.0384 34.4176 41.5275 34.5452 41.1147C34.6744 40.6965 34.9361 40.2912 35.2627 40.0026C35.5133 39.7812 35.9321 39.7708 36.1981 39.9794C36.4642 40.1879 36.4767 40.5365 36.2261 40.7579C36.0657 40.8997 35.9055 41.135 35.8269 41.3891C35.7467 41.6486 35.776 41.8418 35.8495 41.9527C35.8655 41.9768 35.8666 41.9768 35.8778 41.9773C35.8801 41.9773 35.8826 41.9774 35.8858 41.9777C35.9435 41.9832 36.0673 41.9715 36.2504 41.903C36.4249 41.8377 36.6034 41.7391 36.7495 41.6323C36.9064 41.5175 36.9743 41.4314 36.9865 41.4086C37.1358 41.1309 37.5272 41.0066 37.8608 41.1308C38.1944 41.2551 38.3438 41.5809 38.1946 41.8585C38.187 41.8727 38.179 41.8867 38.1706 41.9007C38.2262 42.0316 38.2228 42.1799 38.1472 42.3158C38.031 42.5246 37.8485 42.9432 37.824 43.2722C37.8162 43.3761 37.8271 43.4367 37.8359 43.467C37.8502 43.468 37.87 43.4685 37.8966 43.4679C38.2255 43.4597 38.594 43.2869 38.9386 42.9466C39.2691 42.6201 39.5011 42.2107 39.5894 41.8816C39.5267 41.6361 39.6731 41.3783 39.9582 41.2681C40.2897 41.1399 40.6832 41.2597 40.8371 41.5356C40.8551 41.5677 40.8744 41.6026 40.8949 41.6398C41.1054 42.0202 41.4491 42.6414 41.8201 43.0166C41.8822 43.0795 41.9359 43.1255 41.9798 43.1578ZM41.9102 43.2297C41.9102 43.2295 41.9119 43.2283 41.9155 43.2264C41.9121 43.2289 41.9103 43.2298 41.9102 43.2297ZM42.0705 43.2128L42.0721 43.2134C42.0721 43.2134 42.0716 43.2132 42.0705 43.2128ZM37.804 43.4622C37.8042 43.4621 37.8063 43.4625 37.8095 43.4638C37.8055 43.463 37.8038 43.4623 37.804 43.4622Z" fill="#8623FF"/>
<path fill-rule="evenodd" clip-rule="evenodd" d="M27.1951 0.0143354C31.6988 -0.150723 35.9255 1.09164 38.97 4.67454C41.4561 7.6004 42.4384 11.6653 41.3299 15.4096C40.2793 18.9582 37.3646 22.1363 34.2269 23.8795C29.8163 26.3299 25.0874 26.2655 20.4811 24.812C16.1879 23.4572 11.7506 20.1287 11.0955 15.2602C10.7186 15.2184 10.4406 14.8843 10.471 14.5036C11.165 5.82964 19.0184 0.314005 27.1951 0.0143354ZM12.0314 13.3848C12.263 13.5003 12.4221 13.7395 12.4221 14.0159C12.4221 18.6503 16.4981 22.0773 20.9052 23.4679C25.2534 24.84 29.5602 24.8599 33.5425 22.6475C36.4212 21.0482 39.0518 18.14 39.9785 15.0096C40.9437 11.7494 40.0932 8.17303 37.896 5.58712C35.2086 2.42449 31.4551 1.26851 27.2467 1.42275C19.988 1.68877 13.261 6.30639 12.0314 13.3848Z" fill="#8623FF"/>
<path fill-rule="evenodd" clip-rule="evenodd" d="M28.5746 38.1854C28.4165 38.1989 28.2633 38.2581 28.1461 38.3624C27.4907 38.9454 26.669 39.5937 25.7803 40.0153C24.8939 40.4359 24.0353 40.5892 23.2262 40.3328C21.1133 39.6631 19.3811 37.8294 19.3602 35.929C19.343 34.369 20.5233 33.0689 22.247 32.9252C22.7251 32.8853 23.1888 33.0937 23.7212 33.5154C24.5198 34.1481 25.0679 34.4064 25.916 34.7973C26.3122 34.9799 26.7046 35.0858 27.0959 35.0902C27.4979 35.0946 27.8434 34.9911 28.1342 34.8302C28.6204 34.5613 28.9828 34.1037 29.2642 33.7485C29.2867 33.72 29.3088 33.6922 29.3303 33.6652C29.623 33.2981 29.9495 33.0769 30.1904 33.0198C30.2889 32.9965 30.3656 33.0012 30.4432 33.0299C30.5308 33.0623 30.6745 33.1464 30.8459 33.3621C31.0206 33.582 31.1397 33.9313 31.1546 34.3801C31.1692 34.821 31.081 35.3119 30.8991 35.7736C30.5137 36.7522 29.8298 37.3513 29.1404 37.4088C28.7653 37.44 28.4917 37.7185 28.5292 38.0307C28.5358 38.0851 28.5514 38.137 28.5746 38.1854ZM32.1963 36.1275C31.7637 37.2259 30.806 38.4109 29.2783 38.5392C29.3735 38.7375 29.3298 38.9724 29.143 39.1386C28.4605 39.7457 27.5264 40.4947 26.4564 41.0024C25.384 41.5112 24.0809 41.8194 22.7404 41.3946C20.1744 40.5814 18.0219 38.3686 17.9951 35.9395C17.973 33.9361 19.5246 32.0102 22.111 31.7946C23.207 31.7032 24.0573 32.2131 24.6623 32.6924C25.3321 33.223 25.7569 33.4251 26.5773 33.8033C26.8403 33.9244 27.0111 33.9529 27.1141 33.9541C27.2063 33.9551 27.2861 33.9351 27.3785 33.884C27.6199 33.7504 27.8375 33.4826 28.1929 33.0369C28.5578 32.5792 29.1161 32.093 29.8166 31.927C30.1888 31.8388 30.597 31.8436 30.9971 31.9914C31.3871 32.1355 31.7139 32.3948 31.9845 32.7354C32.3486 33.1936 32.5002 33.7758 32.5192 34.3488C32.5384 34.9295 32.4235 35.5506 32.1963 36.1275Z" fill="#8623FF"/>
</svg>
